<?xml version="1.0" encoding="utf-8"?>
<!-- Generator: Adobe Illustrator 24.0.3, SVG Export Plug-In . SVG Version: 6.00 Build 0)  -->
<svg version="1.1" id="Layer_1" xmlns="http://www.w3.org/2000/svg" xmlns:xlink="http://www.w3.org/1999/xlink" x="0px" y="0px"
	 viewBox="0 0 622.31 254.42" style="enable-background:new 0 0 622.31 254.42;" xml:space="preserve">
<style type="text/css">
	.st0{fill:#D41A69;}
	.st1{fill:#40B4E2;}
	.st2{fill:#06AF72;}
	.st3{fill:#F2B021;}
</style>
<g>
	<g>
		<path d="M221.47,161.53l6.16-14.38c6.75,4.99,15.55,7.63,24.35,7.63c6.46,0,10.56-2.49,10.56-6.31
			c-0.15-10.56-38.88-2.35-39.17-28.9c-0.15-13.5,11.88-23.91,28.9-23.91c10.12,0,20.25,2.5,27.44,8.22l-5.76,14.68
			c-6.61-4.24-14.78-7.2-22.56-7.2c-5.28,0-8.8,2.49-8.8,5.72c0.15,10.42,39.17,4.69,39.61,30.08c0,13.79-11.74,23.47-28.46,23.47
			C241.43,170.62,230.13,167.69,221.47,161.53"/>
		<path d="M459.43,141.95c-3.07,5.43-8.9,9.09-15.58,9.09c-9.89,0-17.9-8.01-17.9-17.9s8.01-17.9,17.9-17.9
			c6.68,0,12.51,3.66,15.58,9.09l17.13-9.49c-6.42-11.45-18.66-19.19-32.71-19.19c-20.7,0-37.49,16.78-37.49,37.49
			c0,20.7,16.78,37.49,37.49,37.49c14.06,0,26.3-7.74,32.71-19.19L459.43,141.95z"/>
		<rect x="290.85" y="64.45" width="21.42" height="104.71"/>
		<polygon points="484.89,64.45 484.89,169.16 506.32,169.16 506.32,137.79 531.7,169.16 559.08,169.16 526.8,131.89 556.73,97.12 
			530.52,97.12 506.32,126.03 506.32,64.45 		"/>
		<path d="M375.78,142.09c-3.08,5.14-9.54,8.95-16.73,8.95c-9.89,0-17.9-8.01-17.9-17.9s8.01-17.9,17.9-17.9
			c7.19,0,13.64,3.96,16.73,9.24V142.09z M375.78,97.12v8.51c-3.52-5.87-12.18-9.98-21.27-9.98c-18.78,0-33.6,16.58-33.6,37.41
			c0,20.83,14.82,37.56,33.6,37.56c9.1,0,17.75-4.11,21.27-9.98v8.51h21.42V97.12H375.78z"/>
	</g>
	<g>
		<g>
			<path class="st0" d="M89.17,141.96c0,7.31-5.92,13.23-13.23,13.23s-13.23-5.92-13.23-13.23s5.92-13.23,13.23-13.23h13.23V141.96z
				"/>
			<path class="st0" d="M95.78,141.96c0-7.31,5.92-13.23,13.23-13.23s13.23,5.92,13.23,13.23v33.08c0,7.31-5.92,13.23-13.23,13.23
				s-13.23-5.92-13.23-13.23V141.96z"/>
		</g>
		<g>
			<path class="st1" d="M109.01,89.04c-7.31,0-13.23-5.92-13.23-13.23c0-7.31,5.92-13.23,13.23-13.23s13.23,5.92,13.23,13.23v13.23
				H109.01z"/>
			<path class="st1" d="M109.01,95.65c7.31,0,13.23,5.92,13.23,13.23c0,7.31-5.92,13.23-13.23,13.23H75.94
				c-7.31,0-13.23-5.92-13.23-13.23c0-7.31,5.92-13.23,13.23-13.23H109.01z"/>
		</g>
		<g>
			<path class="st2" d="M161.94,108.88c0-7.31,5.92-13.23,13.23-13.23s13.23,5.92,13.23,13.23c0,7.31-5.92,13.23-13.23,13.23h-13.23
				V108.88z"/>
			<path class="st2" d="M155.32,108.88c0,7.31-5.92,13.23-13.23,13.23s-13.23-5.92-13.23-13.23V75.81c0-7.31,5.92-13.23,13.23-13.23
				s13.23,5.92,13.23,13.23V108.88z"/>
		</g>
		<g>
			<path class="st3" d="M142.09,161.81c7.31,0,13.23,5.92,13.23,13.23c0,7.31-5.92,13.23-13.23,13.23s-13.23-5.92-13.23-13.23
				v-13.23H142.09z"/>
			<path class="st3" d="M142.09,155.19c-7.31,0-13.23-5.92-13.23-13.23s5.92-13.23,13.23-13.23h33.08c7.31,0,13.23,5.92,13.23,13.23
				s-5.92,13.23-13.23,13.23H142.09z"/>
		</g>
	</g>
</g>
</svg>
